#!OML:ASF X:\für Bonn\!DataBase\2005_08_11_Bastian_Final\c3d\Bastian.ASF
:FULLY-SPECIFIED
:DEGREES
138
root 4.71646 17.0196 -19.9823 137.372 4.14917 -184.094
lowerback 23.6171 -1.22636 -0.22224
upperback 17.9114 4.63385 -6.84256
thorax 7.75131 5.59004 -7.89504
lowerneck 15.2823 -8.04235 -13.3781
upperneck -2.07303 -12.8592 17.4308
head -1.07774 -7.21865 8.04779
rclavicle -2.48481e-014 6.20208e-014
rhumerus -63.0717 5.81373 -95.4771
rradius 107.988
rwrist 10.4133
rhand -18.0869 5.1695
rfingers 7.12502
rthumb 8.18645 -24.6519
lclavicle -2.48481e-014 6.20208e-014
lhumerus -37.1262 1.18776 81.1722
lradius 38.2982
lwrist 32.0957
lhand -12.3924 -32.9377
lfingers 7.12502
lthumb 13.6789 -3.40723
rfemur 24.1042 0.542659 20.5933
rtibia 40.7467
rfoot -7.86086 -5.29934
rtoes 7.7813
lfemur -44.8377 9.33204 -15.6068
ltibia 100.011
lfoot 8.75652 -6.10919
ltoes -38.0546
139
root 4.69784 17.0566 -19.9686 138.11 4.64352 -184.044
lowerback 22.7492 -1.28313 -0.264624
upperback 17.6423 4.22171 -6.73427
thorax 7.74455 5.20193 -7.64216
lowerneck 14.9251 -7.71689 -13.3771
upperneck -2.15784 -12.3557 17.1677
head -1.14241 -6.9372 7.94986
rclavicle -3.57812e-015 4.45278e-014
rhumerus -63.6887 5.77407 -95.9096
rradius 107.725
rwrist 10.8464
rhand -18.2609 5.21623
rfingers 7.12502
rthumb 8.01849 -24.6117
lclavicle -3.57812e-015 4.45278e-014
lhumerus -36.8154 0.748961 80.1216
lradius 39.3882
lwrist 32.0541
lhand -12.3283 -33.0334
lfingers 7.12502
lthumb 13.7407 -3.50709
rfemur 23.4568 0.475097 20.6495
rtibia 40.2398
rfoot -7.46027 -5.21599
rtoes 7.87098
lfemur -41.9292 8.7319 -14.7046
ltibia 99.5302
lfoot 9.34503 -6.54357
ltoes -37.6971
140
root 4.67636 17.0885 -19.9565 138.82 5.15235 -184.03
lowerback 21.8911 -1.35194 -0.303906
upperback 17.3789 3.81794 -6.64954
thorax 7.75722 4.83248 -7.42609
lowerneck 14.5429 -7.8706 -13.4679
upperneck -2.09694 -11.7203 16.8965
head -1.15336 -6.36043 7.84193
rclavicle -6.95746e-015 -2.06736e-014
rhumerus -64.2225 5.79356 -96.3611
rradius 107.489
rwrist 11.253
rhand -18.486 5.29597
rfingers 7.12502
rthumb 7.80128 -24.5401
lclavicle -6.95746e-015 -2.06736e-014
lhumerus -36.6149 0.194521 79.1069
lradius 40.6142
lwrist 31.8463
lhand -12.3473 -33.1761
lfingers 7.12502
lthumb 13.7223 -3.64858
rfemur 22.649 0.390055 20.6199
rtibia 40.1609
rfoot -7.2969 -4.99547
rtoes 7.6988
lfemur -38.9419 8.00011 -13.9158
ltibia 98.9537
lfoot 9.90809 -6.8188
ltoes -37.6911
141
root 4.65369 17.1096 -19.9448 139.505 5.69662 -183.987
lowerback 21.0864 -1.43723 -0.321666
upperback 17.1116 3.40459 -6.54513
thorax 7.74651 4.46487 -7.20959
lowerneck 14.0714 -7.53298 -13.4316
upperneck -2.14244 -11.2317 16.6529
head -1.18483 -6.09427 7.73643
rclavicle -1.72943e-014 -1.43125e-014
rhumerus -64.729 5.92638 -96.7426
rradius 107.338
rwrist 11.7432
rhand -18.7189 5.27721
rfingers 7.12502
rthumb 7.5765 -24.5671
lclavicle -1.72943e-014 -1.43125e-014
lhumerus -36.487 -0.257584 78.1184
lradius 41.8911
lwrist 31.5279
lhand -12.4086 -33.4131
lfingers 7.12502
lthumb 13.6632 -3.88155
rfemur 21.7813 0.288384 20.6174
rtibia 40.2599
rfoot -7.24859 -4.7264
rtoes 7.33641
lfemur -35.9696 7.21079 -13.172
ltibia 98.2554
lfoot 10.5305 -6.77262
ltoes -38.4541
142
root 4.63104 17.1167 -19.934 140.161 6.24385 -183.984
lowerback 20.3112 -1.50966 -0.403962
upperback 16.837 3.01233 -6.43572
thorax 7.72293 4.10812 -6.96129
lowerneck 13.591 -7.20034 -13.3817
upperneck -2.17733 -10.7467 16.4076
head -1.21035 -5.82965 7.6274
rclavicle -8.94531e-015 -1.49486e-013
rhumerus -65.2171 6.13866 -97.0615
rradius 107.259
rwrist 12.1713
rhand -18.9139 5.29976
rfingers 7.12502
rthumb 7.38829 -24.5512
lclavicle -8.94531e-015 -1.49486e-013
lhumerus -36.5338 -0.770677 77.2086
lradius 43.3332
lwrist 31.1365
lhand -12.5996 -33.6435
lfingers 7.12502
lthumb 13.4791 -4.09968
rfemur 20.8637 0.229003 20.5978
rtibia 40.5208
rfoot -7.29646 -4.42489
rtoes 7.00581
lfemur -33.0574 6.43709 -12.5485
ltibia 97.4713
lfoot 11.274 -6.59809
ltoes -39.1378
143
root 4.60777 17.1149 -19.9217 140.783 6.81016 -183.98
lowerback 19.6053 -1.58377 -0.486799
upperback 16.5533 2.6321 -6.32591
thorax 7.66541 3.76546 -6.72358
lowerneck 13.097 -6.87336 -13.3243
upperneck -2.16579 -10.2668 16.1905
head -1.21661 -5.56727 7.52425
rclavicle 1.98785e-016 -4.45278e-014
rhumerus -65.6283 6.38938 -97.3232
rradius 107.159
rwrist 12.5679
rhand -19.1302 5.33862
rfingers 7.12502
rthumb 7.17944 -24.5196
lclavicle 1.98785e-016 -4.45278e-014
lhumerus -36.5713 -1.27967 76.3279
lradius 44.717
lwrist 30.7108
lhand -12.8117 -33.9206
lfingers 7.12502
lthumb 13.2747 -4.36333
rfemur 19.9141 0.198587 20.5954
rtibia 40.8842
rfoot -7.4333 -4.09032
rtoes 6.84197
lfemur -30.1919 5.68569 -11.9997
ltibia 96.5908
lfoot 12.0087 -6.30411
ltoes -39.4166
144
root 4.5848 17.1137 -19.9059 141.376 7.38395 -183.98
lowerback 18.9618 -1.65471 -0.605827
upperback 16.2521 2.25763 -6.19925
thorax 7.56305 3.42525 -6.45537
lowerneck 12.6368 -6.54476 -13.2619
upperneck -2.17503 -9.78462 15.9792
head -1.23301 -5.30572 7.42487
rclavicle -5.725e-014 1.43125e-014
rhumerus -65.9528 6.68204 -97.4962
rradius 107.042
rwrist 12.9316
rhand -19.2877 5.36938
rfingers 7.12502
rthumb 7.02747 -24.494
lclavicle -5.725e-014 1.43125e-014
lhumerus -36.6222 -1.88099 75.536
lradius 46.094
lwrist 30.4706
lhand -13.0241 -34.1114
lfingers 7.12502
lthumb 13.07 -4.54087
rfemur 18.987 0.223536 20.6148
rtibia 41.242
rfoot -7.57485 -3.7554
rtoes 6.97084
lfemur -27.3356 4.96249 -11.535
ltibia 95.5794
lfoot 12.7316 -5.85072
ltoes -39.2115
145
root 4.56282 17.1182 -19.8855 141.963 7.98953 -183.972
lowerback 18.373 -1.71667 -0.728847
upperback 15.9246 1.89709 -6.0561
thorax 7.41147 3.09317 -6.17546
lowerneck 12.2076 -6.21001 -13.2178
upperneck -2.1553 -9.29965 15.7901
head -1.24292 -5.04407 7.33645
rclavicle -2.88238e-015 5.56597e-014
rhumerus -66.2417 7.01885 -97.6078
rradius 106.954
rwrist 13.1598
rhand -19.4442 5.46875
rfingers 7.12502
rthumb 6.87638 -24.3996
lclavicle -2.88238e-015 5.56597e-014
lhumerus -36.6416 -2.67751 74.8372
lradius 47.4527
lwrist 30.4801
lhand -13.218 -34.1212
lfingers 7.12502
lthumb 12.883 -4.53881
rfemur 18.0962 0.353985 20.7086
rtibia 41.5147
rfoot -7.68596 -3.42564
rtoes 7.42302
lfemur -24.5149 4.31235 -11.1278
ltibia 94.4527
lfoot 13.3097 -5.39362
ltoes -39.5257
146
root 4.54165 17.132 -19.8604 142.523 8.569 -183.98
lowerback 17.8518 -1.78392 -0.912584
upperback 15.5877 1.53562 -5.90893
thorax 7.22261 2.76249 -5.86211
lowerneck 11.7733 -5.88371 -13.1312
upperneck -2.12602 -8.82162 15.5637
head -1.2503 -4.78516 7.2289
rclavicle 1.50082e-014 -1.59028e-014
rhumerus -66.4063 7.39874 -97.6706
rradius 106.823
rwrist 13.308
rhand -19.5328 5.62039
rfingers 7.12502
rthumb 6.79083 -24.2507
lclavicle 1.50082e-014 -1.59028e-014
lhumerus -36.6291 -3.55183 74.1637
lradius 48.844
lwrist 30.6781
lhand -13.2494 -33.9852
lfingers 7.12502
lthumb 12.8528 -4.40093
rfemur 17.28 0.546806 20.8107
rtibia 41.6651
rfoot -7.76469 -3.13617
rtoes 7.9897
lfemur -21.792 3.64749 -10.8506
ltibia 93.266
lfoot 13.5811 -4.97157
ltoes -40.6863
147
root 4.51892 17.1489 -19.8311 143.085 9.16559 -183.979
lowerback 17.356 -1.8459 -1.10459
upperback 15.2474 1.19168 -5.74166
thorax 7.0277 2.44552 -5.52752
lowerneck 11.3774 -5.5645 -13.0592
upperneck -2.11569 -8.35679 15.3582
head -1.26423 -4.53528 7.13283
rclavicle 5.06901e-015 4.77083e-015
rhumerus -66.4564 7.77617 -97.6979
rradius 106.703
rwrist 13.3942
rhand -19.57 5.74405
rfingers 7.12502
rthumb 6.75488 -24.1282
lclavicle 5.06901e-015 4.77083e-015
lhumerus -36.5684 -4.43208 73.519
lradius 50.281
lwrist 30.9855
lhand -13.1398 -33.6887
lfingers 7.12502
lthumb 12.9584 -4.11115
rfemur 16.4895 0.784296 20.9546
rtibia 41.7354
rfoot -7.76167 -2.86005
rtoes 8.472
lfemur -19.2242 2.93773 -10.6396
ltibia 92.0936
lfoot 13.6304 -4.26382
ltoes -41.7121
148
root 4.49487 17.1623 -19.7998 143.629 9.75544 -183.99
lowerback 16.8777 -1.91924 -1.37297
upperback 14.9239 0.842291 -5.55812
thorax 6.85231 2.12785 -5.13399
lowerneck 10.9607 -5.22497 -13.0099
upperneck -2.12257 -7.86498 15.1652
head -1.28084 -4.27226 7.04412
rclavicle -7.04692e-014 -9.62118e-014
rhumerus -66.3487 8.22466 -97.6965
rradius 106.543
rwrist 13.3911
rhand -19.5553 5.9285
rfingers 7.12502
rthumb 6.76915 -23.9433
lclavicle -7.04692e-014 -9.62118e-014
lhumerus -36.3868 -5.15904 72.8413
lradius 51.6567
lwrist 31.3649
lhand -12.7247 -33.3954
lfingers 7.12502
lthumb 13.3585 -3.84368
rfemur 15.7156 1.02917 21.0839
rtibia 41.7752
rfoot -7.74604 -2.60676
rtoes 8.68406
lfemur -16.7276 2.21211 -10.5117
ltibia 90.9236
lfoot 13.5797 -3.52752
ltoes -41.2239
149
root 4.46807 17.1713 -19.7683 144.156 10.3548 -183.991
lowerback 16.3728 -2.00439 -1.61163
upperback 14.6541 0.516739 -5.3942
thorax 6.76697 1.84277 -4.78331
lowerneck 10.4455 -4.91913 -12.8542
upperneck -2.11118 -7.39535 14.9685
head -1.27562 -4.01726 6.93245
rclavicle 1.59525e-014 6.99722e-014
rhumerus -66.0563 8.67273 -97.7305
rradius 106.4
rwrist 13.3254
rhand -19.4793 6.05405
rfingers 7.12502
rthumb 6.84246 -23.8154
lclavicle 1.59525e-014 6.99722e-014
lhumerus -36.0452 -5.79678 72.094
lradius 53.0578
lwrist 31.7799
lhand -12.1313 -33.1269
lfingers 7.12502
lthumb 13.9305 -3.61359
rfemur 14.9447 1.26494 21.2035
rtibia 41.834
rfoot -7.75952 -2.30034
rtoes 8.81103
lfemur -14.2577 1.57616 -10.4617
ltibia 89.7236
lfoot 13.33 -2.79661
ltoes -40.4168
150
root 4.43899 17.1772 -19.7354 144.686 10.9659 -183.965
lowerback 15.8638 -2.09482 -1.8486
upperback 14.3937 0.196308 -5.21473
thorax 6.70327 1.56565 -4.42095
lowerneck 9.96041 -4.61401 -12.6426
upperneck -2.13741 -6.92033 14.7638
head -1.28737 -3.76115 6.81154
rclavicle -1.59028e-014 3.26007e-014
rhumerus -65.6548 9.08989 -97.7476
rradius 106.279
rwrist 13.23
rhand -19.2927 6.16445
rfingers 7.12502
rthumb 7.0226 -23.6991
lclavicle -1.59028e-014 3.26007e-014
lhumerus -35.671 -6.16681 71.3228
lradius 54.5449
lwrist 32.0741
lhand -11.371 -32.8901
lfingers 7.12502
lthumb 14.6631 -3.42856
rfemur 14.1405 1.47224 21.3212
rtibia 41.9247
rfoot -7.77172 -1.95118
rtoes 9.08932
lfemur -11.8588 1.09001 -10.4491
ltibia 88.4836
lfoot 12.9472 -2.06363
ltoes -39.8654
151
root 4.40685 17.1822 -19.7006 145.208 11.5364 -183.938
lowerback 15.3632 -2.19679 -2.0954
upperback 14.1433 -0.125081 -5.03818
thorax 6.65577 1.29495 -4.06017
lowerneck 9.46159 -4.3352 -12.3426
upperneck -2.13378 -6.47574 14.4844
head -1.28696 -3.51858 6.65162
rclavicle 3.8266e-015 -7.63333e-014
rhumerus -65.1492 9.48344 -97.7578
rradius 106.131
rwrist 13.0592
rhand -19.0164 6.30307
rfingers 7.12502
rthumb 7.28933 -23.5514
lclavicle 3.8266e-015 -7.63333e-014
lhumerus -35.3393 -6.35152 70.5599
lradius 56.2023
lwrist 32.3028
lhand -10.5719 -32.7225
lfingers 7.12502
lthumb 15.4329 -3.31866
rfemur 13.3259 1.62257 21.3728
rtibia 42.0377
rfoot -7.7848 -1.54735
rtoes 9.31929
lfemur -9.50875 0.650073 -10.513
ltibia 87.2196
lfoot 12.125 -1.14172
ltoes -40.1263
152
root 4.37154 17.1858 -19.6637 145.722 12.1403 -183.898
lowerback 14.8997 -2.28589 -2.30761
upperback 13.8768 -0.422475 -4.85048
thorax 6.57871 1.04191 -3.71317
lowerneck 9.03238 -4.05075 -12.0074
upperneck -2.16116 -6.02376 14.2227
head -1.30576 -3.27548 6.49498
rclavicle 8.44835e-016 -2.8625e-014
rhumerus -64.6387 9.77977 -97.7771
rradius 105.999
rwrist 12.9586
rhand -18.6651 6.44632
rfingers 7.12502
rthumb 7.62837 -23.3961
lclavicle 8.44835e-016 -2.8625e-014
lhumerus -35.0468 -6.40183 69.8851
lradius 57.8625
lwrist 32.4709
lhand -9.88924 -32.7235
lfingers 7.12502
lthumb 16.0903 -3.37151
rfemur 12.4891 1.70894 21.3952
rtibia 42.1739
rfoot -7.78937 -1.04747
rtoes 9.55957
lfemur -7.19946 0.365462 -10.5465
ltibia 85.9365
lfoot 11.1843 -0.102254
ltoes -39.5933
